<svg width="21" height="20" viewBox="0 0 21 20" fill="none" xmlns="http://www.w3.org/2000/svg">
<g clip-path="url(#clip0)">
<path fill-rule="evenodd" clip-rule="evenodd" d="M17.377 1.94447H13.8333C13.3731 1.94447 13 1.57137 13 1.11113C13 0.650898 13.3731 0.277802 13.8333 0.277802H19.3889C19.8491 0.277802 20.2222 0.650898 20.2222 1.11113V6.66669C20.2222 7.12693 19.8491 7.50002 19.3889 7.50002C18.9286 7.50002 18.5556 7.12693 18.5556 6.66669V3.12298L8.86703 12.8115C8.5416 13.1369 8.01396 13.1369 7.68852 12.8115C7.36309 12.4861 7.36309 11.9584 7.68852 11.633L17.377 1.94447ZM9.38887 2.22225V2.22236C9.68029 2.21823 9.95135 2.37134 10.0983 2.62306C10.2452 2.87477 10.2452 3.18609 10.0983 3.4378C9.95135 3.68952 9.68029 3.84263 9.38887 3.83851C7.37287 3.83851 5.87187 3.84393 4.81499 3.96319C3.7581 4.08246 3.21238 4.3044 2.8958 4.62133C2.57922 4.93826 2.35788 5.48395 2.23924 6.54051C2.12061 7.59707 2.11614 9.09726 2.11614 11.1111C2.11614 13.1245 2.12311 14.6242 2.24398 15.6802C2.36484 16.7363 2.5879 17.283 2.90685 17.601C3.2258 17.9191 3.7723 18.1399 4.82765 18.2592C5.883 18.3784 7.38077 18.3839 9.38884 18.3839C11.3967 18.3839 12.8948 18.3778 13.95 18.2576C15.0052 18.1374 15.5514 17.9153 15.8708 17.5963C16.1902 17.2772 16.4128 16.7309 16.5337 15.6755C16.6546 14.6202 16.6615 13.1211 16.6615 11.1112C16.6574 10.8198 16.8105 10.5487 17.0622 10.4018C17.314 10.2549 17.6253 10.2549 17.877 10.4018C18.1287 10.5487 18.2818 10.8198 18.2777 11.1112C18.2777 13.1226 18.2778 14.6448 18.1388 15.8586C17.9998 17.0724 17.71 18.0432 17.0135 18.739C16.3169 19.4348 15.3447 19.7245 14.1315 19.8627C12.9184 20.0009 11.398 20 9.38887 20C7.37999 20 5.85918 20.0029 4.64618 19.8659C3.43318 19.7288 2.46283 19.4404 1.76579 18.7453C1.06874 18.0502 0.776292 17.0793 0.63731 15.8649C0.498329 14.6505 0.500002 13.1261 0.500002 11.1112C0.500002 9.09672 0.497869 7.57277 0.634159 6.35896C0.770401 5.14507 1.05614 4.1748 1.75157 3.47858C2.447 2.78236 3.41912 2.49346 4.63349 2.35641C5.84795 2.21936 7.37207 2.22225 9.38887 2.22225Z" fill="#A2A5AF"/>
</g>
<defs>
<clipPath id="clip0">
<rect width="20" height="20" fill="white" transform="translate(0.5)"/>
</clipPath>
</defs>
</svg>
